<svg width="40" height="40" viewBox="0 0 40 40" fill="none" xmlns="http://www.w3.org/2000/svg">
<circle cx="20" cy="20" r="20" fill="#131313"/>
<path fill-rule="evenodd" clip-rule="evenodd" d="M19.8246 5.64851C19.9331 5.58583 20.0669 5.58583 20.1754 5.64851L32.341 12.6723C32.4496 12.735 32.5165 12.8508 32.5165 12.9762V27.0238C32.5165 27.1492 32.4496 27.265 32.341 27.3277L20.1754 34.3515C20.0669 34.4142 19.9331 34.4142 19.8246 34.3515L7.65896 27.3277C7.5504 27.265 7.48352 27.1492 7.48352 27.0238V12.9762C7.48352 12.8508 7.5504 12.735 7.65896 12.6723L19.8246 5.64851ZM8.18527 13.1788V26.8212L20 33.6425L31.8147 26.8212V13.1788L20 6.35754L8.18527 13.1788Z" fill="white"/>
<path fill-rule="evenodd" clip-rule="evenodd" d="M32.3321 13.28L20.1755 20.3038L19.8245 19.6962L31.9811 12.6724L32.3321 13.28Z" fill="white"/>
<path fill-rule="evenodd" clip-rule="evenodd" d="M7.66787 13.28L19.8245 20.3038L20.1755 19.6962L8.01894 12.6724L7.66787 13.28Z" fill="white"/>
<path fill-rule="evenodd" clip-rule="evenodd" d="M19.6491 34.0476V20H20.3509V34.0476H19.6491Z" fill="white"/>
<mask id="path-6-outside-1_378_803" maskUnits="userSpaceOnUse" x="9.22809" y="11.6842" width="21" height="16" fill="black">
<rect fill="white" x="9.22809" y="11.6842" width="21" height="16"/>
<path d="M23.5212 13.7752L23.5216 13.7751C24.8048 13.5217 26.1014 13.8197 27.0309 14.4006C27.6734 14.8042 28.2013 15.3033 28.5909 15.8781C28.7091 16.0525 28.8145 16.2339 28.9066 16.4217C28.7025 16.3805 28.5018 16.3444 28.305 16.3139C27.6439 16.2114 27.0258 16.1719 26.4629 16.2135C25.6292 16.2742 24.9934 16.5363 24.5309 16.9007C24.0708 17.2499 23.6976 17.7108 23.325 18.2683C23.2314 18.409 23.1388 18.5608 23.0501 18.707L22.7587 19.209C22.5139 19.626 22.2496 20.0421 21.9591 20.4498C21.3808 21.2662 20.6986 22.0704 19.8236 22.7971C19.3837 23.1571 18.8931 23.4964 18.3324 23.7742C17.7771 24.054 17.1419 24.2644 16.4794 24.3528C15.8215 24.4418 15.1395 24.3839 14.5341 24.2181C14.2313 24.1322 13.9466 24.0178 13.6815 23.8872C13.419 23.7538 13.1804 23.5955 12.9493 23.4311C12.5026 23.0963 12.1416 22.7049 11.834 22.2848C11.7109 22.1232 11.5998 21.9515 11.4988 21.7728C11.4858 21.7496 11.4729 21.7264 11.4602 21.7031C11.3759 21.5485 11.2989 21.389 11.2281 21.2267C11.336 21.2488 11.4431 21.2726 11.5505 21.2964C11.6379 21.3159 11.7256 21.3353 11.8144 21.3541C12.5068 21.5002 13.2702 21.6019 14.4981 21.2784C15.415 21.0367 16.1465 20.5095 16.7699 19.8824C17.3179 19.3312 17.7902 18.6941 18.2317 18.0987C18.2904 18.0196 18.3486 17.9411 18.4063 17.8637L19.1825 16.8323L19.6816 16.1959C19.8746 15.9768 20.0651 15.7634 20.2739 15.5595C20.6959 15.1496 21.1827 14.7681 21.7251 14.4516C22.2668 14.1357 22.8845 13.8983 23.5212 13.7752Z"/>
<path d="M12.7358 23.7194C12.56 23.5878 12.397 23.4484 12.2451 23.3028C12.3211 23.3981 12.3993 23.4922 12.4796 23.5853C13.1593 24.3505 14.0079 25.0478 15.0982 25.5065C16.1727 25.9753 17.523 26.1436 18.7856 25.8897C20.0515 25.646 21.1624 25.0603 22.0603 24.3827C22.9606 23.6984 23.6889 22.9188 24.303 22.1083C24.4724 21.8843 24.5621 21.759 24.6848 21.584L25.0238 21.0818C25.1422 20.9256 25.2553 20.7586 25.3682 20.592C25.4798 20.4272 25.5911 20.2628 25.707 20.1097L25.7771 20.0108C26.2106 19.3994 26.6419 18.7909 27.1389 18.2281C27.4025 17.9272 27.6805 17.6395 28.0087 17.3629C28.1723 17.2279 28.3492 17.0958 28.5451 16.9768C28.6569 16.9047 28.7722 16.8413 28.8977 16.7859C28.0026 16.6012 27.1925 16.5191 26.4889 16.5711C25.7176 16.6272 25.1519 16.8675 24.7515 17.1833L24.7502 17.1843L24.7488 17.1854C24.3345 17.4995 23.9873 17.9225 23.6235 18.4668C23.5349 18.6 23.4471 18.7438 23.3584 18.8899L23.0684 19.3897L23.0681 19.3901C22.819 19.8144 22.5492 20.2395 22.2514 20.6574C21.6601 21.4921 20.9574 22.3216 20.0521 23.0734L20.0517 23.0738L20.0512 23.0742C19.5957 23.447 19.083 23.8024 18.4926 24.095C17.9051 24.3909 17.2323 24.614 16.527 24.7082C15.8177 24.8042 15.0872 24.7416 14.4383 24.5637L14.4376 24.5635L14.4368 24.5633C14.1096 24.4706 13.804 24.3475 13.5217 24.2084L13.5207 24.2079L13.5197 24.2074C13.2329 24.0617 12.9768 23.891 12.7393 23.722L12.7375 23.7207L12.7358 23.7194Z"/>
</mask>
<path d="M23.5212 13.7752L23.5216 13.7751C24.8048 13.5217 26.1014 13.8197 27.0309 14.4006C27.6734 14.8042 28.2013 15.3033 28.5909 15.8781C28.7091 16.0525 28.8145 16.2339 28.9066 16.4217C28.7025 16.3805 28.5018 16.3444 28.305 16.3139C27.6439 16.2114 27.0258 16.1719 26.4629 16.2135C25.6292 16.2742 24.9934 16.5363 24.5309 16.9007C24.0708 17.2499 23.6976 17.7108 23.325 18.2683C23.2314 18.409 23.1388 18.5608 23.0501 18.707L22.7587 19.209C22.5139 19.626 22.2496 20.0421 21.9591 20.4498C21.3808 21.2662 20.6986 22.0704 19.8236 22.7971C19.3837 23.1571 18.8931 23.4964 18.3324 23.7742C17.7771 24.054 17.1419 24.2644 16.4794 24.3528C15.8215 24.4418 15.1395 24.3839 14.5341 24.2181C14.2313 24.1322 13.9466 24.0178 13.6815 23.8872C13.419 23.7538 13.1804 23.5955 12.9493 23.4311C12.5026 23.0963 12.1416 22.7049 11.834 22.2848C11.7109 22.1232 11.5998 21.9515 11.4988 21.7728C11.4858 21.7496 11.4729 21.7264 11.4602 21.7031C11.3759 21.5485 11.2989 21.389 11.2281 21.2267C11.336 21.2488 11.4431 21.2726 11.5505 21.2964C11.6379 21.3159 11.7256 21.3353 11.8144 21.3541C12.5068 21.5002 13.2702 21.6019 14.4981 21.2784C15.415 21.0367 16.1465 20.5095 16.7699 19.8824C17.3179 19.3312 17.7902 18.6941 18.2317 18.0987C18.2904 18.0196 18.3486 17.9411 18.4063 17.8637L19.1825 16.8323L19.6816 16.1959C19.8746 15.9768 20.0651 15.7634 20.2739 15.5595C20.6959 15.1496 21.1827 14.7681 21.7251 14.4516C22.2668 14.1357 22.8845 13.8983 23.5212 13.7752Z" fill="white"/>
<path d="M12.7358 23.7194C12.56 23.5878 12.397 23.4484 12.2451 23.3028C12.3211 23.3981 12.3993 23.4922 12.4796 23.5853C13.1593 24.3505 14.0079 25.0478 15.0982 25.5065C16.1727 25.9753 17.523 26.1436 18.7856 25.8897C20.0515 25.646 21.1624 25.0603 22.0603 24.3827C22.9606 23.6984 23.6889 22.9188 24.303 22.1083C24.4724 21.8843 24.5621 21.759 24.6848 21.584L25.0238 21.0818C25.1422 20.9256 25.2553 20.7586 25.3682 20.592C25.4798 20.4272 25.5911 20.2628 25.707 20.1097L25.7771 20.0108C26.2106 19.3994 26.6419 18.7909 27.1389 18.2281C27.4025 17.9272 27.6805 17.6395 28.0087 17.3629C28.1723 17.2279 28.3492 17.0958 28.5451 16.9768C28.6569 16.9047 28.7722 16.8413 28.8977 16.7859C28.0026 16.6012 27.1925 16.5191 26.4889 16.5711C25.7176 16.6272 25.1519 16.8675 24.7515 17.1833L24.7502 17.1843L24.7488 17.1854C24.3345 17.4995 23.9873 17.9225 23.6235 18.4668C23.5349 18.6 23.4471 18.7438 23.3584 18.8899L23.0684 19.3897L23.0681 19.3901C22.819 19.8144 22.5492 20.2395 22.2514 20.6574C21.6601 21.4921 20.9574 22.3216 20.0521 23.0734L20.0517 23.0738L20.0512 23.0742C19.5957 23.447 19.083 23.8024 18.4926 24.095C17.9051 24.3909 17.2323 24.614 16.527 24.7082C15.8177 24.8042 15.0872 24.7416 14.4383 24.5637L14.4376 24.5635L14.4368 24.5633C14.1096 24.4706 13.804 24.3475 13.5217 24.2084L13.5207 24.2079L13.5197 24.2074C13.2329 24.0617 12.9768 23.891 12.7393 23.722L12.7375 23.7207L12.7358 23.7194Z" fill="white"/>
<path d="M23.5216 13.7751L23.7251 14.8079L23.7255 14.8078L23.5216 13.7751ZM23.5212 13.7752L23.7211 14.8087L23.7247 14.8079L23.5212 13.7752ZM27.0309 14.4006L27.5908 13.5093L27.5888 13.508L27.0309 14.4006ZM28.5909 15.8781L29.4623 15.2876V15.2876L28.5909 15.8781ZM28.9066 16.4217L28.6983 17.4535C29.0913 17.5328 29.4952 17.382 29.74 17.0647C29.9849 16.7473 30.0282 16.3183 29.8518 15.9584L28.9066 16.4217ZM28.305 16.3139L28.1438 17.3541L28.305 16.3139ZM26.4629 16.2135L26.5394 17.2633L26.5405 17.2633L26.4629 16.2135ZM24.5309 16.9007L25.1673 17.7392C25.1723 17.7354 25.1773 17.7315 25.1823 17.7276L24.5309 16.9007ZM23.325 18.2683L22.4498 17.6834L22.4485 17.6854L23.325 18.2683ZM23.0501 18.707L22.1502 18.1608C22.1466 18.1667 22.1431 18.1727 22.1397 18.1786L23.0501 18.707ZM22.7587 19.209L23.6665 19.742L23.6691 19.7374L22.7587 19.209ZM21.9591 20.4498L21.1019 19.8389L21.1002 19.8413L21.9591 20.4498ZM19.8236 22.7971L20.4903 23.6118L20.4962 23.6069L19.8236 22.7971ZM18.3324 23.7742L17.8651 22.831L17.8589 22.8341L18.3324 23.7742ZM16.4794 24.3528L16.3402 23.3094L16.3382 23.3096L16.4794 24.3528ZM14.5341 24.2181L14.2469 25.2308L14.256 25.2333L14.5341 24.2181ZM13.6815 23.8872L13.2044 24.8256L13.2164 24.8315L13.6815 23.8872ZM12.9493 23.4311L12.318 24.2734C12.325 24.2787 12.3321 24.2839 12.3392 24.2889L12.9493 23.4311ZM11.834 22.2848L12.6832 21.6629C12.6794 21.6576 12.6755 21.6524 12.6715 21.6472L11.834 22.2848ZM11.4988 21.7728L10.5823 22.2905L10.5823 22.2905L11.4988 21.7728ZM11.4602 21.7031L12.3844 21.1993L12.3844 21.1993L11.4602 21.7031ZM11.2281 21.2267L11.4396 20.1955C11.0546 20.1165 10.6576 20.2586 10.4102 20.564C10.1628 20.8694 10.1061 21.2872 10.2632 21.6475L11.2281 21.2267ZM11.5505 21.2964L11.7788 20.2689L11.7788 20.2689L11.5505 21.2964ZM11.8144 21.3541L11.5971 22.384L11.5971 22.384L11.8144 21.3541ZM14.4981 21.2784L14.2299 20.2605L14.2299 20.2605L14.4981 21.2784ZM16.7699 19.8824L16.0234 19.1403L16.0234 19.1403L16.7699 19.8824ZM18.2317 18.0987L19.0773 18.7257L19.0773 18.7257L18.2317 18.0987ZM18.4063 17.8637L17.5652 17.2308L17.5624 17.2345L18.4063 17.8637ZM19.1825 16.8323L18.3542 16.1827C18.3499 16.1882 18.3456 16.1938 18.3414 16.1994L19.1825 16.8323ZM19.6816 16.1959L18.8916 15.5003C18.8784 15.5152 18.8657 15.5306 18.8534 15.5463L19.6816 16.1959ZM20.2739 15.5595L19.5405 14.8045L19.5385 14.8063L20.2739 15.5595ZM21.7251 14.4516L21.1948 13.5423L21.1945 13.5425L21.7251 14.4516ZM12.2451 23.3028L12.9734 22.5428C12.5733 22.1594 11.9445 22.1518 11.5353 22.5255C11.126 22.8993 11.0767 23.5262 11.4224 23.9594L12.2451 23.3028ZM12.7358 23.7194L13.3667 22.8769L13.3667 22.8769L12.7358 23.7194ZM12.4796 23.5853L11.6826 24.2729C11.6859 24.2767 11.6892 24.2805 11.6926 24.2843L12.4796 23.5853ZM15.0982 25.5065L15.5192 24.5416L15.5064 24.5362L15.0982 25.5065ZM18.7856 25.8897L18.5865 24.856L18.578 24.8577L18.7856 25.8897ZM22.0603 24.3827L22.6943 25.223L22.6974 25.2207L22.0603 24.3827ZM24.303 22.1083L25.142 22.7439L25.1424 22.7435L24.303 22.1083ZM24.6848 21.584L25.5468 22.1881C25.5503 22.1831 25.5538 22.1781 25.5572 22.173L24.6848 21.584ZM25.0238 21.0818L24.1851 20.4457C24.1735 20.4611 24.1622 20.4768 24.1514 20.4928L25.0238 21.0818ZM25.3682 20.592L24.4965 20.0018L24.4965 20.0018L25.3682 20.592ZM25.707 20.1097L26.5461 20.7453C26.5528 20.7364 26.5594 20.7275 26.5657 20.7185L25.707 20.1097ZM25.7771 20.0108L26.6358 20.6197L26.6359 20.6196L25.7771 20.0108ZM27.1389 18.2281L27.9279 18.9249L27.9306 18.9218L27.1389 18.2281ZM28.0087 17.3629L27.3388 16.5509L27.3304 16.558L28.0087 17.3629ZM28.5451 16.9768L29.0916 17.8765C29.0998 17.8715 29.108 17.8664 29.1161 17.8612L28.5451 16.9768ZM28.8977 16.7859L29.3231 17.7487C29.7418 17.5637 29.9929 17.1294 29.9443 16.6742C29.8958 16.219 29.5586 15.8474 29.1103 15.755L28.8977 16.7859ZM26.4889 16.5711L26.5652 17.621L26.5665 17.6209L26.4889 16.5711ZM24.7515 17.1833L25.4031 18.01L25.4034 18.0098L24.7515 17.1833ZM24.7502 17.1843L25.3858 18.0234C25.3912 18.0193 25.3965 18.0152 25.4018 18.011L24.7502 17.1843ZM24.7488 17.1854L24.1132 16.3463L24.1129 16.3466L24.7488 17.1854ZM23.6235 18.4668L22.7483 17.8819L22.747 17.8839L23.6235 18.4668ZM23.3584 18.8899L22.4586 18.3438C22.455 18.3497 22.4515 18.3556 22.448 18.3616L23.3584 18.8899ZM23.0684 19.3897L23.9776 19.9201L23.9788 19.9181L23.0684 19.3897ZM23.0681 19.3901L23.9759 19.923L23.9774 19.9205L23.0681 19.3901ZM22.2514 20.6574L21.3942 20.0465L21.3925 20.0489L22.2514 20.6574ZM20.0521 23.0734L19.3796 22.2636L19.3787 22.2644L20.0521 23.0734ZM20.0517 23.0738L20.7192 23.8877L20.7251 23.8828L20.0517 23.0738ZM20.0512 23.0742L20.7178 23.8888L20.7187 23.8881L20.0512 23.0742ZM18.4926 24.095L18.0252 23.1518L18.0192 23.1548L18.4926 24.095ZM16.527 24.7082L16.3877 23.6648L16.3858 23.6651L16.527 24.7082ZM14.4383 24.5637L14.7166 23.5486L14.7165 23.5485L14.4383 24.5637ZM14.4376 24.5635L14.1493 25.576L14.1594 25.5788L14.4376 24.5635ZM14.4368 24.5633L14.725 23.5509L14.7239 23.5506L14.4368 24.5633ZM13.5217 24.2084L13.0556 25.1522L13.0564 25.1526L13.5217 24.2084ZM13.5207 24.2079L13.0448 25.1468L13.0546 25.1517L13.5207 24.2079ZM13.5197 24.2074L13.043 25.1459L13.0438 25.1463L13.5197 24.2074ZM12.7393 23.722L13.3495 22.8643L13.3494 22.8642L12.7393 23.722ZM12.7375 23.7207L12.1065 24.5633C12.1134 24.5685 12.1204 24.5735 12.1274 24.5785L12.7375 23.7207ZM23.318 12.7423L23.3177 12.7424L23.7247 14.8079L23.7251 14.8079L23.318 12.7423ZM27.5888 13.508C26.4428 12.7918 24.8752 12.4348 23.3176 12.7424L23.7255 14.8078C24.7344 14.6086 25.76 14.8477 26.473 15.2933L27.5888 13.508ZM29.4623 15.2876C28.983 14.5803 28.3443 13.9826 27.5908 13.5093L26.471 15.292C27.0024 15.6258 27.4197 16.0262 27.7195 16.4687L29.4623 15.2876ZM29.8518 15.9584C29.7377 15.7257 29.6075 15.5019 29.4623 15.2876L27.7195 16.4687C27.8107 16.6031 27.8913 16.742 27.9614 16.885L29.8518 15.9584ZM28.1438 17.3541C28.3235 17.3819 28.5084 17.4152 28.6983 17.4535L29.1149 15.3899C28.8966 15.3458 28.6802 15.3068 28.4663 15.2737L28.1438 17.3541ZM26.5405 17.2633C27.0018 17.2292 27.5365 17.2599 28.1438 17.3541L28.4663 15.2737C27.7513 15.1628 27.0499 15.1146 26.3854 15.1637L26.5405 17.2633ZM25.1823 17.7276C25.462 17.5073 25.8915 17.3105 26.5394 17.2633L26.3865 15.1636C25.3669 15.2378 24.5249 15.5654 23.8795 16.0738L25.1823 17.7276ZM24.2001 18.8532C24.5461 18.3355 24.8428 17.9854 25.1673 17.7392L23.8946 16.0622C23.2988 16.5143 22.849 17.0861 22.4498 17.6834L24.2001 18.8532ZM23.9499 19.2532C24.0397 19.1053 24.1216 18.9712 24.2015 18.8512L22.4485 17.6854C22.3412 17.8468 22.2379 18.0164 22.1502 18.1608L23.9499 19.2532ZM23.6691 19.7374L23.9605 19.2354L22.1397 18.1786L21.8483 18.6807L23.6691 19.7374ZM22.8163 21.0607C23.1281 20.6232 23.4091 20.1803 23.6665 19.7419L21.851 18.6761C21.6187 19.0717 21.3711 19.4611 21.1019 19.8389L22.8163 21.0607ZM20.4962 23.6069C21.4595 22.8068 22.2019 21.9281 22.8181 21.0582L21.1002 19.8413C20.5596 20.6044 19.9376 21.3341 19.1511 21.9874L20.4962 23.6069ZM18.7998 24.7174C19.4475 24.3965 20.0045 24.0093 20.4903 23.6118L19.157 21.9825C18.763 22.3049 18.3388 22.5963 17.8651 22.831L18.7998 24.7174ZM16.6186 25.3961C17.4078 25.2909 18.1554 25.042 18.806 24.7143L17.8589 22.8341C17.3989 23.0659 16.8761 23.2379 16.3402 23.3094L16.6186 25.3961ZM14.256 25.2333C14.9884 25.434 15.813 25.5052 16.6206 25.3959L16.3382 23.3096C15.8299 23.3785 15.2907 23.3339 14.8122 23.2029L14.256 25.2333ZM13.2164 24.8315C13.5305 24.9862 13.8747 25.1252 14.2469 25.2308L14.8213 23.2054C14.5878 23.1392 14.3627 23.0493 14.1466 22.9429L13.2164 24.8315ZM12.3392 24.2889C12.5867 24.4649 12.874 24.6576 13.2045 24.8256L14.1585 22.9489C13.9639 22.8499 13.7741 22.726 13.5594 22.5733L12.3392 24.2889ZM10.9847 22.9068C11.3407 23.3928 11.7722 23.8643 12.318 24.2734L13.5806 22.5889C13.233 22.3283 12.9425 22.017 12.6832 21.6629L10.9847 22.9068ZM10.5823 22.2905C10.7039 22.5056 10.8409 22.7181 10.9965 22.9225L12.6715 21.6472C12.581 21.5283 12.4958 21.3974 12.4153 21.255L10.5823 22.2905ZM10.5359 22.2069C10.5511 22.2348 10.5666 22.2627 10.5823 22.2905L12.4153 21.255C12.4049 21.2366 12.3946 21.218 12.3844 21.1993L10.5359 22.2069ZM10.2632 21.6475C10.3448 21.8345 10.4351 22.0219 10.5359 22.2069L12.3844 21.1993C12.3167 21.075 12.253 20.9436 12.1929 20.8058L10.2632 21.6475ZM11.7788 20.2689C11.6727 20.2453 11.5573 20.2196 11.4396 20.1955L11.0166 22.2578C11.1147 22.278 11.2134 22.2999 11.3222 22.324L11.7788 20.2689ZM12.0318 20.3241C11.9493 20.3067 11.867 20.2885 11.7788 20.2689L11.3222 22.324C11.4087 22.3432 11.5018 22.3639 11.5971 22.384L12.0318 20.3241ZM14.2299 20.2605C13.2027 20.5312 12.6124 20.4467 12.0318 20.3241L11.5971 22.384C12.4012 22.5537 13.3376 22.6727 14.7663 22.2962L14.2299 20.2605ZM16.0234 19.1403C15.4803 19.6866 14.9058 20.0824 14.2299 20.2605L14.7663 22.2962C15.9242 21.9911 16.8128 21.3323 17.5164 20.6245L16.0234 19.1403ZM17.3861 17.4718C16.9371 18.0774 16.5088 18.652 16.0234 19.1403L17.5164 20.6245C18.1271 20.0103 18.6434 19.3108 19.0773 18.7257L17.3861 17.4718ZM17.5624 17.2345C17.5037 17.3132 17.4447 17.3928 17.3861 17.4718L19.0773 18.7257C19.1361 18.6463 19.1934 18.569 19.2501 18.493L17.5624 17.2345ZM18.3414 16.1994L17.5652 17.2308L19.2473 18.4967L20.0235 17.4653L18.3414 16.1994ZM18.8534 15.5463L18.3542 16.1827L20.0107 17.482L20.5099 16.8456L18.8534 15.5463ZM19.5385 14.8063C19.2986 15.0406 19.085 15.2807 18.8916 15.5003L20.4716 16.8916C20.6643 16.6728 20.8317 16.4861 21.0092 16.3127L19.5385 14.8063ZM21.1945 13.5425C20.5718 13.9059 20.0177 14.3409 19.5405 14.8045L21.0073 16.3146C21.3741 15.9583 21.7937 15.6304 22.2556 15.3608L21.1945 13.5425ZM23.3213 12.7417C22.565 12.888 21.8359 13.1684 21.1948 13.5423L22.2554 15.3609C22.6977 15.103 23.2041 14.9087 23.7211 14.8087L23.3213 12.7417ZM11.5168 24.0628C11.6979 24.2364 11.8933 24.4036 12.1048 24.562L13.3667 22.8769C13.2267 22.772 13.0961 22.6604 12.9734 22.5428L11.5168 24.0628ZM13.2767 22.8977C13.2049 22.8145 13.1353 22.7307 13.0679 22.6462L11.4224 23.9594C11.507 24.0654 11.5937 24.1699 11.6826 24.2729L13.2767 22.8977ZM15.5064 24.5362C14.5929 24.1519 13.8675 23.5628 13.2666 22.8862L11.6926 24.2843C12.451 25.1382 13.4229 25.9437 14.69 26.4767L15.5064 24.5362ZM18.578 24.8577C17.5306 25.0684 16.3995 24.9258 15.5192 24.5417L14.6772 26.4712C15.9459 27.0248 17.5154 27.2188 18.9931 26.9217L18.578 24.8577ZM21.4263 23.5425C20.6239 24.1479 19.6587 24.6496 18.5865 24.856L18.9846 26.9233C20.4442 26.6423 21.7008 25.9727 22.6943 25.223L21.4263 23.5425ZM23.4639 21.4726C22.8961 22.2221 22.2334 22.9289 21.4233 23.5447L22.6974 25.2207C23.6878 24.4678 24.4818 23.6154 25.142 22.7439L23.4639 21.4726ZM23.8228 20.9799C23.706 21.1465 23.6239 21.2612 23.4636 21.4731L25.1424 22.7435C25.3209 22.5075 25.4182 22.3715 25.5468 22.1881L23.8228 20.9799ZM24.1514 20.4928L23.8124 20.995L25.5572 22.173L25.8962 21.6708L24.1514 20.4928ZM24.4965 20.0018C24.3808 20.1728 24.2835 20.316 24.1851 20.4457L25.8625 21.7179C26.001 21.5353 26.1299 21.3444 26.2398 21.1822L24.4965 20.0018ZM24.8679 19.4741C24.7322 19.6533 24.6051 19.8414 24.4965 20.0018L26.2398 21.1822C26.3544 21.0129 26.45 20.8722 26.5461 20.7453L24.8679 19.4741ZM24.9184 19.402L24.8483 19.5009L26.5657 20.7185L26.6358 20.6197L24.9184 19.402ZM26.3498 17.5314C25.8095 18.1433 25.3465 18.7982 24.9184 19.4021L26.6359 20.6196C27.0747 20.0006 27.4743 19.4386 27.9279 18.9248L26.3498 17.5314ZM27.3304 16.558C26.9499 16.8786 26.6339 17.2072 26.3472 17.5344L27.9306 18.9218C28.1711 18.6473 28.4112 18.4003 28.687 18.1678L27.3304 16.558ZM27.9986 16.0772C27.7479 16.2295 27.5293 16.3939 27.3389 16.5509L28.6785 18.1749C28.8154 18.062 28.9505 17.9622 29.0916 17.8765L27.9986 16.0772ZM28.4722 15.823C28.2922 15.9026 28.1285 15.9929 27.9742 16.0925L29.1161 17.8612C29.1853 17.8165 29.2521 17.7801 29.3231 17.7487L28.4722 15.823ZM26.5665 17.6209C27.1383 17.5786 27.844 17.6433 28.685 17.8168L29.1103 15.755C28.1612 15.5592 27.2467 15.4596 26.4113 15.5214L26.5665 17.6209ZM25.4034 18.0098C25.6209 17.8383 25.9802 17.6635 26.5652 17.621L26.4125 15.5213C25.4551 15.5909 24.6829 15.8968 24.0996 16.3568L25.4034 18.0098ZM25.4018 18.011L25.4031 18.01L24.0999 16.3566L24.0986 16.3576L25.4018 18.011ZM25.3845 18.0244L25.3858 18.0234L24.1145 16.3453L24.1132 16.3463L25.3845 18.0244ZM24.4986 19.0518C24.8359 18.5472 25.1063 18.2353 25.3848 18.0242L24.1129 16.3466C23.5626 16.7638 23.1387 17.2978 22.7483 17.8819L24.4986 19.0518ZM24.2583 19.4361C24.3479 19.2884 24.4251 19.1623 24.5 19.0497L22.747 17.8839C22.6447 18.0377 22.5464 18.1991 22.4586 18.3438L24.2583 19.4361ZM23.9788 19.9181L24.2688 19.4183L22.448 18.3616L22.1579 18.8613L23.9788 19.9181ZM23.9774 19.9205L23.9776 19.9201L22.1591 18.8593L22.1589 18.8597L23.9774 19.9205ZM23.1086 21.2683C23.4277 20.8206 23.7143 20.3687 23.9759 19.923L22.1604 18.8572C21.9238 19.2602 21.6707 19.6585 21.3942 20.0465L23.1086 21.2683ZM20.7247 23.8832C21.7183 23.058 22.4812 22.154 23.1103 21.2659L21.3925 20.0489C20.839 20.8302 20.1964 21.5853 19.3796 22.2636L20.7247 23.8832ZM20.7251 23.8828L20.7256 23.8824L19.3787 22.2644L19.3782 22.2648L20.7251 23.8828ZM20.7187 23.8881L20.7192 23.8877L19.3841 22.2599L19.3836 22.2603L20.7187 23.8881ZM18.9601 25.0381C19.6375 24.7024 20.2166 24.299 20.7178 23.8888L19.3845 22.2596C18.9748 22.5949 18.5285 22.9024 18.0252 23.1518L18.9601 25.0381ZM16.6663 25.7515C17.4981 25.6405 18.2832 25.379 18.9661 25.0351L18.0192 23.1548C17.5269 23.4028 16.9666 23.5875 16.3877 23.6648L16.6663 25.7515ZM14.16 25.5789C14.9359 25.7916 15.8091 25.8676 16.6682 25.7513L16.3858 23.6651C15.8263 23.7408 15.2385 23.6916 14.7166 23.5486L14.16 25.5789ZM14.1594 25.5788L14.1602 25.579L14.7165 23.5485L14.7157 23.5483L14.1594 25.5788ZM14.1486 25.5757L14.1493 25.5759L14.7258 23.5511L14.725 23.5509L14.1486 25.5757ZM13.0564 25.1526C13.3878 25.3159 13.7531 25.4636 14.1498 25.5761L14.7239 23.5506C14.4662 23.4775 14.2202 23.3791 13.987 23.2642L13.0564 25.1526ZM13.0546 25.1517L13.0556 25.1522L13.9878 23.2646L13.9868 23.2641L13.0546 25.1517ZM13.0438 25.1463L13.0448 25.1468L13.9966 23.269L13.9956 23.2685L13.0438 25.1463ZM12.129 24.5797C12.3829 24.7603 12.6879 24.9655 13.043 25.1459L13.9965 23.2689C13.7779 23.1578 13.5707 23.0217 13.3495 22.8643L12.129 24.5797ZM12.1274 24.5785L12.1292 24.5798L13.3494 22.8642L13.3476 22.863L12.1274 24.5785ZM12.1048 24.562L12.1065 24.5633L13.3685 22.8782L13.3667 22.8769L12.1048 24.562Z" fill="#131313" mask="url(#path-6-outside-1_378_803)"/>
</svg>
